<?xml version="1.0" encoding="UTF-8" standalone="no"?>
<svg
   xmlns:dc="http://purl.org/dc/elements/1.1/"
   xmlns:cc="http://creativecommons.org/ns#"
   xmlns:rdf="http://www.w3.org/1999/02/22-rdf-syntax-ns#"
   xmlns:svg="http://www.w3.org/2000/svg"
   xmlns="http://www.w3.org/2000/svg"
   version="1.1"
   id="svg5974"
   viewBox="0 0 302 79.730768"
   height="79.730766"
   width="302">
  <defs
     id="defs5976" />
  <metadata
     id="metadata5979">
    <rdf:RDF>
      <cc:Work
         rdf:about="">
        <dc:format>image/svg+xml</dc:format>
        <dc:type
           rdf:resource="http://purl.org/dc/dcmitype/StillImage" />
        <dc:title></dc:title>
      </cc:Work>
    </rdf:RDF>
  </metadata>
  <g
     transform="translate(-232.10368,-664.49777)"
     id="layer1">
    <g
       transform="matrix(1.3280727,0,0,-1.3280727,306.02815,743.18073)"
       id="g4265">
      <path
         id="path4267"
         style="fill:#231f20;fill-opacity:1;fill-rule:nonzero;stroke:none"
         d="m 0,0 c 2.663,0 4.822,2.161 4.822,4.824 l 0,25.07 c -0.001,1.002 -0.003,2.516 0.146,3.116 0.598,2.407 2.562,4.085 4.775,4.085 2.714,0 4.922,-2.424 4.922,-5.405 l 0,-26.866 C 14.665,2.161 16.824,0 19.489,0 c 2.662,0 4.822,2.161 4.822,4.824 l 0,26.866 c 0,2.981 2.207,5.405 4.922,5.405 2.214,0 4.178,-1.678 4.775,-4.084 0.148,-0.601 0.148,-2.115 0.147,-3.117 l 0,-25.07 C 34.155,2.161 36.314,0 38.978,0 41.642,0 43.8,2.161 43.8,4.824 l 0,25.062 c 0.002,1.734 0.003,3.7 -0.431,5.45 -1.667,6.716 -7.48,11.405 -14.136,11.405 -3.744,0 -7.161,-1.467 -9.744,-3.874 -2.583,2.407 -6.001,3.874 -9.746,3.874 -6.654,0 -12.467,-4.689 -14.135,-11.405 -0.434,-1.75 -0.432,-3.716 -0.432,-5.45 l 0,-25.062 C -4.824,2.161 -2.663,0 0,0" />
    </g>
    <path
       id="path4271"
       style="fill:#231f20;fill-opacity:1;fill-rule:nonzero;stroke:none"
       d="m 239.86357,743.14487 c 3.73454,0 6.76122,-3.02668 6.76122,-6.75989 l 0,-15.98601 26.41935,0 0,15.98601 c 0,3.73321 3.02668,6.75989 6.76122,6.75989 3.73321,0 6.75989,-3.02668 6.75989,-6.75989 l 0,-39.85148 c 0,-5.07855 -0.2271,-8.33232 -0.73576,-10.55153 -2.72387,-11.86899 -13.65657,-20.4842 -25.99702,-20.4842 -12.33779,0 -23.27049,8.61521 -25.99304,20.4842 -0.50998,2.21921 -0.73575,5.47298 -0.73575,10.55153 l 0,39.85148 c 0,3.73321 3.02668,6.75989 6.75989,6.75989 z m 6.76122,-46.61137 c 0,-5.24721 0.27491,-7.01222 0.39444,-7.52884 1.32674,-5.78641 6.71606,-9.98578 12.81324,-9.98578 6.10117,0 11.49049,4.19937 12.81723,9.98578 0.1182,0.51662 0.39444,2.28163 0.39444,7.52884 l 0,10.34436 -26.41935,0 0,-10.34436" />
    <g
       transform="matrix(1.3280727,0,0,-1.3280727,455.35,743.19268)"
       id="g4273">
      <path
         id="path4275"
         style="fill:#231f20;fill-opacity:1;fill-rule:nonzero;stroke:none"
         d="M 0,0 C 9.191,0 16.885,7.632 17.147,17.014 17.255,20.77 17.25,25.315 17.15,29.621 16.927,39.253 9.502,46.715 0,46.715 c -2.689,0 -5.236,-0.625 -7.505,-1.733 l 0,8.682 c 0,2.663 -2.16,4.822 -4.822,4.822 -2.665,0 -4.824,-2.159 -4.824,-4.822 0,0 0,-29.633 0,-32.985 0,-3.35 0.12,-6.397 0.692,-8.352 C -14.381,5.207 -7.783,0 0,0 Z m -7.505,29.57 c 0.048,4.069 3.368,7.5 7.505,7.5 4.158,0 7.395,-3.333 7.505,-7.562 0.11,-4.23 0.103,-8.659 0,-12.221 C 7.388,13.073 4.023,9.645 0,9.645 c -4.137,0 -7.457,3.421 -7.505,7.505 -0.049,4.117 -0.05,8.351 0,12.42" />
    </g>
    <g
       transform="matrix(1.3280727,0,0,-1.3280727,487.23305,723.25831)"
       id="g4277">
      <path
         id="path4279"
         style="fill:#231f20;fill-opacity:1;fill-rule:nonzero;stroke:none"
         d="m 0,0 c 0,-8.292 7.731,-15.037 17.233,-15.037 9.353,0 17.084,6.706 17.232,14.95 0.099,5.517 0.099,10.873 0,16.856 -0.141,8.535 -7.551,14.971 -17.232,14.971 -8.586,0 -14.006,-4.751 -15.462,-6.207 -1.881,-1.884 -1.881,-4.937 0,-6.821 1.887,-1.883 4.939,-1.883 6.82,0 0.566,0.565 3.638,3.382 8.642,3.382 3.797,0 6.796,-1.862 7.454,-4.47 C 22.19,16.36 17.787,15.318 15.429,14.759 11.614,13.855 0,11.104 0,0 Z m 24.893,7.334 c 0.047,-2.453 0.08,-4.853 -0.071,-7.247 -0.169,-2.642 -3.109,-5.478 -7.589,-5.478 -4.113,0 -7.586,2.468 -7.586,5.391 0,1.214 0,3.478 8.005,5.374 2.578,0.611 5.024,1.224 7.241,1.96" />
    </g>
    <g
       transform="matrix(1.3280727,0,0,-1.3280727,399.72235,743.22854)"
       id="g4281">
      <path
         id="path4283"
         style="fill:#231f20;fill-opacity:1;fill-rule:nonzero;stroke:none"
         d="m 0,0 c 8.586,0 14.005,4.751 15.46,6.207 1.884,1.884 1.884,4.937 0,6.821 -1.882,1.882 -4.937,1.882 -6.82,0 C 8.076,12.463 5.005,9.646 0,9.646 c -3.798,0 -6.795,1.863 -7.454,4.47 2.499,1.263 6.898,2.304 9.26,2.865 3.815,0.904 15.426,3.655 15.426,14.759 0,8.292 -7.73,15.037 -17.232,15.037 -9.353,0 -17.083,-6.706 -17.23,-14.951 -0.099,-5.517 -0.099,-10.874 0,-16.855 C -17.089,6.436 -9.681,0 0,0 Z m -7.586,31.654 c 0.168,2.64 3.107,5.477 7.586,5.477 4.113,0 7.587,-2.468 7.587,-5.391 0,-1.215 0,-3.477 -8.006,-5.374 -2.578,-0.612 -5.022,-1.225 -7.241,-1.96 -0.047,2.453 -0.08,4.854 0.074,7.248" />
    </g>
  </g>
</svg>
