<?xml version="1.0" encoding="UTF-8" standalone="no"?>
<!-- Created with Inkscape (http://www.inkscape.org/) -->
<svg
   xmlns:svg="http://www.w3.org/2000/svg"
   xmlns="http://www.w3.org/2000/svg"
   version="1.0"
   width="200"
   height="87.968529"
   id="svg2508">
  <defs
     id="defs2510">
    <clipPath
       id="clipPath7642">
      <path
         d="M 415.3,483.34 L 540,483.34 L 540,538.19 L 415.3,538.19 L 415.3,483.34 z"
         id="path7644" />
    </clipPath>
  </defs>
  <g
     transform="translate(-383.64261,-375.53997)"
     id="layer1">
    <g
       transform="matrix(1.2189084,0,0,1.2189084,-78.982617,-104.46593)"
       id="g8070">
      <g
         transform="matrix(0.6095505,0,0,0.610733,-135.48928,713.35035)"
         id="g7646">
        <g
           transform="translate(977.8165,-479.9461)"
           id="g7648">
          <path
             d="M 0,0 C 0,18.019 -9.736,26.664 -29.572,26.664 C -49.41,26.664 -59.237,18.019 -59.237,0 L -59.237,-39.854 L -39.216,-39.854 L -39.216,-4.455 C -39.216,2.186 -39.216,10.467 -29.482,10.467 C -20.019,10.467 -20.019,2.186 -20.019,-4.455 L -20.019,-39.854 L 0,-39.854 L 0,0 z"
             id="path7650"
             style="fill:#e60012;fill-opacity:1;fill-rule:nonzero;stroke:none" />
        </g>
      </g>
      <g
         transform="matrix(0.6095505,0,0,0.610733,-135.48928,713.35035)"
         id="g7652">
        <g
           transform="translate(1056.2203,-503.1473)"
           id="g7654">
          <path
             d="M 0,0 L -18.2,0 L -18.2,-16.652 L 38.223,-16.652 L 38.223,0 L 20.019,0 L 20.019,48.318 L 0,48.318 L 0,0 z"
             id="path7656"
             style="fill:#e60012;fill-opacity:1;fill-rule:nonzero;stroke:none" />
        </g>
      </g>
      <g
         transform="matrix(0.6095505,0,0,0.610733,-135.48928,713.35035)"
         id="g7658">
        <g
           transform="translate(890.7775,-519.7997)"
           id="g7660">
          <path
             d="M 0,0 L 0,35.398 C 0,42.039 0,50.32 -9.464,50.32 C -15.586,50.32 -17.858,47.043 -18.702,42.961 L -39.114,42.961 C -38.015,58.865 -28.215,66.518 -9.555,66.518 C 10.282,66.518 20.018,57.873 20.018,39.854 L 20.018,0 L 0,0 z"
             id="path7662"
             style="fill:#e60012;fill-opacity:1;fill-rule:nonzero;stroke:none" />
        </g>
      </g>
      <g
         transform="matrix(0.6095505,0,0,0.610733,-135.48928,713.35035)"
         id="g7664">
        <g
           transform="translate(1022.5104,-494.4111)"
           id="g7666">
          <path
             d="M 0,0 C -9.191,-2.549 -18.471,-3.551 -18.836,-8.191 C -18.836,-11.832 -14.374,-12.559 -11.646,-12.559 C -9.645,-12.559 -7.369,-12.103 -5.73,-10.92 C -5.084,-10.488 -4.289,-9.654 -3.915,-8.736 L 15.244,-8.736 C 13.336,-22.309 1.514,-26.935 -11.555,-26.935 C -24.932,-26.935 -37.765,-20.476 -37.765,-5.463 C -37.765,7.643 -26.023,10.463 -15.74,13.375 C -4.547,16.561 -1.727,17.471 -1.727,20.838 C -1.727,25.658 -6.733,26.75 -10.01,26.75 C -13.738,26.75 -18.107,25.934 -19.561,22.022 C -20.017,20.838 -20.291,19.381 -20.291,17.744 L -40.311,17.744 C -40.128,38.488 -19.106,41.129 -11.736,41.129 C 2.73,41.129 18.292,35.668 18.292,18.744 C 18.292,6.824 9.191,2.547 0,0"
             id="path7668"
             style="fill:#e60012;fill-opacity:1;fill-rule:nonzero;stroke:none" />
        </g>
      </g>
      <g
         transform="matrix(0.6095505,0,0,0.610733,-135.48928,713.35035)"
         id="g7670">
        <g
           transform="translate(1107.3883,-463.4853)"
           id="g7672">
          <path
             d="M 0,0 C 0,5.633 -4.568,10.203 -10.207,10.203 C -15.843,10.203 -20.413,5.633 -20.413,0 C -20.413,-5.639 -15.843,-10.205 -10.207,-10.205 C -4.568,-10.205 0,-5.639 0,0"
             id="path7674"
             style="fill:#e60012;fill-opacity:1;fill-rule:nonzero;stroke:none" />
        </g>
      </g>
      <g
         transform="matrix(0.6095505,0,0,0.610733,-135.48928,713.35035)"
         id="g7676">
        <g
           transform="translate(888.2633,-420.5282)"
           id="g7678">
          <path
             d="M 0,0 C -0.138,6.728 4.715,8.787 10.665,8.787 C 14.098,8.787 19.316,6.912 19.316,2.15 C 19.316,-1.557 15.607,-3.022 12.587,-3.756 L 5.311,-5.539 C 1.466,-6.496 -2.059,-8.33 -2.059,-13.412 C -2.059,-16.613 0,-22.609 9.201,-22.609 C 15.653,-22.609 21.328,-19.131 21.282,-12.449 L 18.171,-12.449 C 17.987,-17.438 13.87,-19.955 9.247,-19.955 C 4.99,-19.955 1.054,-18.307 1.054,-13.457 C 1.054,-10.389 3.344,-9.105 5.997,-8.469 L 13.96,-6.496 C 18.584,-5.264 22.427,-3.25 22.427,2.107 C 22.427,4.35 21.511,11.443 9.933,11.443 C 2.196,11.443 -3.478,7.965 -3.111,0 L 0,0 z"
             id="path7680"
             style="fill:#e60012;fill-opacity:1;fill-rule:nonzero;stroke:none" />
        </g>
      </g>
      <g
         transform="matrix(0.6095505,0,0,0.610733,-135.48928,713.35035)"
         id="g7682">
        <g
           transform="translate(922.3893,-423.2274)"
           id="g7684">
          <path
             d="M 0,0 L -12.862,-19.223 L -9.155,-19.223 L 1.601,-2.656 L 12.31,-19.223 L 16.016,-19.223 L 3.111,0 L 3.111,13.455 L 0,13.455 L 0,0 z"
             id="path7686"
             style="fill:#e60012;fill-opacity:1;fill-rule:nonzero;stroke:none" />
        </g>
      </g>
      <g
         transform="matrix(0.6095505,0,0,0.610733,-135.48928,713.35035)"
         id="g7688">
        <g
           transform="translate(940.6075,-420.5282)"
           id="g7690">
          <path
             d="M 0,0 C -0.138,6.728 4.714,8.787 10.664,8.787 C 14.097,8.787 19.315,6.912 19.315,2.15 C 19.315,-1.557 15.608,-3.022 12.584,-3.756 L 5.308,-5.539 C 1.463,-6.496 -2.06,-8.33 -2.06,-13.412 C -2.06,-16.613 0,-22.609 9.199,-22.609 C 15.652,-22.609 21.329,-19.131 21.281,-12.449 L 18.169,-12.449 C 17.988,-17.438 13.868,-19.955 9.247,-19.955 C 4.986,-19.955 1.053,-18.307 1.053,-13.457 C 1.053,-10.389 3.341,-9.105 5.997,-8.469 L 13.959,-6.496 C 18.582,-5.264 22.426,-3.25 22.426,2.107 C 22.426,4.35 21.512,11.443 9.929,11.443 C 2.197,11.443 -3.477,7.965 -3.113,0 L 0,0 z"
             id="path7692"
             style="fill:#e60012;fill-opacity:1;fill-rule:nonzero;stroke:none" />
        </g>
      </g>
      <g
         transform="matrix(0.6095505,0,0,0.610733,-135.48928,713.35035)"
         id="g7694">
        <g
           transform="translate(962.8761,-442.45)"
           id="g7696">
          <path
             d="M 0,0 L 25.906,0 L 25.906,2.654 L 14.509,2.654 L 14.509,32.678 L 11.398,32.678 L 11.398,2.654 L 0,2.654 L 0,0 z"
             id="path7698"
             style="fill:#e60012;fill-opacity:1;fill-rule:nonzero;stroke:none" />
        </g>
      </g>
      <g
         transform="matrix(0.6095505,0,0,0.610733,-135.48928,713.35035)"
         id="g7700">
        <g
           transform="translate(991.103,-442.45)"
           id="g7702">
          <path
             d="M 0,0 L 22.561,0 L 22.561,2.654 L 3.11,2.654 L 3.11,14.463 L 21.327,14.463 L 21.327,17.115 L 3.11,17.115 L 3.11,30.023 L 22.791,30.023 L 22.791,32.678 L 0,32.678 L 0,0 z"
             id="path7704"
             style="fill:#e60012;fill-opacity:1;fill-rule:nonzero;stroke:none" />
        </g>
      </g>
      <g
         transform="matrix(0.6095505,0,0,0.610733,-135.48928,713.35035)"
         id="g7706">
        <g
           transform="translate(1016.7487,-442.45)"
           id="g7708">
          <path
             d="M 0,0 L 4.578,0 L 15.882,28.65 L 27.141,0 L 31.717,0 L 31.717,32.678 L 28.604,32.678 L 28.604,4.439 L 28.514,4.439 L 17.348,32.678 L 14.416,32.678 L 3.204,4.439 L 3.114,4.439 L 3.114,32.678 L 0,32.678 L 0,0 z"
             id="path7710"
             style="fill:#e60012;fill-opacity:1;fill-rule:nonzero;stroke:none" />
        </g>
      </g>
      <g
         transform="matrix(0.6095505,0,0,0.610733,-135.48928,713.35035)"
         id="g7712">
        <g
           transform="translate(1055.5231,-420.5282)"
           id="g7714">
          <path
             d="M 0,0 C -0.139,6.728 4.712,8.787 10.665,8.787 C 14.095,8.787 19.313,6.912 19.313,2.15 C 19.313,-1.557 15.605,-3.022 12.587,-3.756 L 5.307,-5.539 C 1.464,-6.496 -2.061,-8.33 -2.061,-13.412 C -2.061,-16.613 0,-22.609 9.2,-22.609 C 15.651,-22.609 21.327,-19.131 21.28,-12.449 L 18.171,-12.449 C 17.983,-17.438 13.866,-19.955 9.244,-19.955 C 4.987,-19.955 1.052,-18.307 1.052,-13.457 C 1.052,-10.389 3.339,-9.105 5.995,-8.469 L 13.96,-6.496 C 18.58,-5.264 22.425,-3.25 22.425,2.107 C 22.425,4.35 21.511,11.443 9.931,11.443 C 2.196,11.443 -3.476,7.965 -3.112,0 L 0,0 z"
             id="path7716"
             style="fill:#e60012;fill-opacity:1;fill-rule:nonzero;stroke:none" />
        </g>
      </g>
    </g>
  </g>
</svg>
