<?xml version="1.0" encoding="UTF-8" standalone="no"?>
<svg
   xmlns:svg="http://www.w3.org/2000/svg"
   xmlns="http://www.w3.org/2000/svg"
   version="1.1"
   width="61"
   height="12"
   id="svg2">
  <path
     d="m 59.6602,10.7591 v -0.248 h 0.159 c 0.087,0 0.206,0.007 0.206,0.113 0,0.115 -0.061,0.135 -0.164,0.135 z m 0,0.174 h 0.106 l 0.247,0.433 h 0.272 l -0.274,-0.45 c 0.142,-0.01 0.258,-0.077 0.258,-0.267 0,-0.237 -0.164,-0.313 -0.439,-0.313 h -0.399 v 1.03 h 0.229 z m 1.16,-0.08 c 0,-0.606 -0.471,-0.957 -0.995,-0.957 -0.528,0 -0.999,0.351 -0.999,0.957 0,0.605 0.471,0.958 0.999,0.958 0.524,0 0.995,-0.353 0.995,-0.958 m -0.288,0 c 0,0.441 -0.323,0.738 -0.707,0.738 v -0.003 c -0.394,0.003 -0.712,-0.294 -0.712,-0.735 0,-0.441 0.318,-0.736 0.712,-0.736 0.384,0 0.707,0.295 0.707,0.736"
     id="path4" />
  <path
     d="m 24.307,0.604 0.001,10.868 h 3.069 V 0.604 Z M 0.16,0.589 V 11.472 H 3.257 V 3.209 h 2.399 c 0.794,0 1.36,0.197 1.744,0.607 0.485,0.517 0.683,1.351 0.683,2.878 v 4.778 h 3.001 V 5.459 c 0,-4.292 -2.736,-4.87 -5.412,-4.87 z m 29.09,0.015 v 10.868 h 4.978 c 2.653,0 3.519,-0.441 4.455,-1.43 0.662,-0.694 1.089,-2.219 1.089,-3.883 0,-1.528 -0.362,-2.891 -0.993,-3.74 C 37.642,0.9 36.003,0.604 33.558,0.604 Z m 3.044,2.366 h 1.32 c 1.914,0 3.153,0.861 3.153,3.091 0,2.232 -1.239,3.092 -3.153,3.092 h -1.32 z M 19.882,0.604 17.319,9.218 14.865,0.604 h -3.314 l 3.506,10.868 h 4.424 L 23.015,0.604 Z M 41.2,11.472 h 3.071 V 0.604 H 41.2 Z M 49.806,0.608 45.52,11.47 h 3.026 l 0.678,-1.921 h 5.073 l 0.642,1.921 h 3.286 L 53.906,0.608 Z m 1.992,1.981 1.86,5.089 H 49.88 Z"
     id="path6" />
</svg>
